# xmcd
# 
# Track frame offsets:
#   150
#   14707
#   26257
#   39232
#   50632
#   63235
#   74485
#   87232
#   101185
#   115360
#   126907
#   138010
#   148585
#   160507
#   172585
#   183160
# 
# Disc length: 2619 seconds
# 
# Revision: 2
# Processed by: cddbd v1.5.2PL0 Copyright (c) Steve Scherf et al.
# Submitted via: Synapstar 1.0 
# 
DISCID=d20a3910
DTITLE=Reeves, Jim - Lg046
DYEAR=1900
DGENRE=Country
TTITLE0=Distant Drums
TTITLE1=I Love You Because
TTITLE2=Welcome To My World
TTITLE3=I Won't Come In While He's There
TTITLE4=Moonlight And Roses
TTITLE5=When Two Worlds Collide
TTITLE6=Adios Amigo
TTITLE7=Not Until The Next Time
TTITLE8=Four Walls
TTITLE9=Is It Really Over
TTITLE10=It Hurts So Much
TTITLE11=I Won't Forget You
TTITLE12=You're The Only Good Thing
TTITLE13=He'll Have To Go
TTITLE14=There's A Heartache Follwing Me
TTITLE15=Am I Losing You
EXTD=MediaType: Karaoke CD+G Producer: Unknown
EXTT0=
EXTT1=
EXTT2=
EXTT3=
EXTT4=
EXTT5=
EXTT6=
EXTT7=
EXTT8=
EXTT9=
EXTT10=
EXTT11=
EXTT12=
EXTT13=
EXTT14=
EXTT15=
PLAYORDER=
